/* XPM */
static char *myicon[] = {
/* width height ncolors chars_per_pixel */
"64 64 255 2",
/* colors */
"   c #000000",
" . c #CAD910",
" X c #EDC801",
" o c #FDD000",
" O c #B5F112",
" + c #CAEA09",
" @ c #AFF30C",
" # c #F3C900",
" $ c #F2EF02",
" % c #339F7D",
" & c #F4BB01",
" * c #DFF503",
" = c #FDB200",
" - c #FDB000",
" ; c #FDA600",
" : c #5CE731",
" > c #7FC636",
" , c #FACA00",
" < c #36C265",
" 1 c #4BB266",
" 2 c #FD9200",
" 3 c #EEE101",
" 4 c #FAA600",
" 5 c #50F128",
" 6 c #BDEB0C",
" 7 c #EDCF00",
" 8 c #DED305",
" 9 c #F7C000",
" 0 c #2E5764",
" q c #F4D600",
" w c #AFF80B",
" e c #38B66D",
" r c #324354",
" t c #FEAD00",
" y c #FEAB00",
" u c #FEA900",
" i c #FEA700",
" p c #FBD700",
" a c #BEF809",
" s c #FEA300",
" d c #FE9F00",
" f c #48DA44",
" g c #FE9700",
" h c #FBC700",
" j c #FE9500",
" k c #FE8F00",
" l c #FE8700",
" z c #357774",
" x c #F8E100",
" c c #FE7F00",
" v c #FBAB00",
" b c #C1FD05",
" n c #E6DB02",
" m c #FB9F00",
" M c #FB9D00",
" N c #A2F70E",
" B c #E6CF02",
" V c #8BEF1F",
" C c #F8B500",
" Z c #DBF004",
" A c #171325",
" S c #65EE2B",
" D c #E4E503",
" F c #D4E907",
" G c #E5D704",
" H c #F89700",
" J c #FFC000",
" K c #7AF21B",
" L c #F5B300",
" P c #FFA400",
" I c #FFA200",
" U c #5CDC39",
" Y c #F5A500",
" T c #FF9C00",
" R c #FCCC00",
" E c #2D6868",
" W c #FF9400",
" Q c #100C17",
" ! c #FF9200",
" ~ c #FF9000",
" ^ c #FF8E00",
" / c #FF8C00",
" ( c #FF8A00",
" ) c #FF8600",
" _ c #FF8400",
" ` c #FF8200",
" ' c #FF8000",
" ] c #FF7E00",
" [ c #CDF706",
" { c #FF7C00",
" } c #FF7A00",
" | c #FF7800",
".  c #FF7600",
".. c #DFE504",
".X c #FF7400",
".o c #CBF104",
".O c #FF7200",
".+ c #49E63D",
".@ c #E5E000",
".# c #FF7000",
".$ c #FF6E00",
".% c #251C32",
".& c #FF6C00",
".* c #FF6A00",
".= c #2FD955",
".- c #FF6800",
".; c #A0FC0B",
".: c #95F11E",
".> c #FF6600",
"., c #FF6400",
".< c #FF6200",
".1 c #95F614",
".2 c #FC9200",
".3 c #2B323B",
".4 c #FF6000",
".5 c #FF5E00",
".6 c #FF5C00",
".7 c #F9BC00",
".8 c #FF5A00",
".9 c #FF5800",
".0 c #F9B800",
".q c #FF5600",
".w c #33AB6D",
".e c #FF5400",
".r c #FF5200",
".t c #F9B200",
".y c #0B070B",
".u c #FF5000",
".i c #FF4E00",
".p c #E4EA02",
".a c #F9AE00",
".s c #F0B301",
".d c #FF4C00",
".f c #FC7C00",
".g c #FF4A00",
".h c #FF4800",
".j c #FF4400",
".k c #FF4200",
".l c #EED702",
".z c #FF4000",
".x c #F6D000",
".c c #35CF5E",
".v c #FF3C00",
".b c #74E632",
".n c #CEFC03",
".m c #D2F207",
".M c #F6AA00",
".N c #C1F40A",
".B c #FDC300",
".V c #9AFC0B",
".C c #FDBD00",
".Z c #DFFC03",
".A c #FDBB00",
".S c #7AFB1D",
".D c #FDB900",
".F c #FDB700",
".G c #FAE700",
".H c #FADB00",
".J c #153135",
".K c #DFDC03",
".L c #A8FC08",
".P c #6E894A",
".I c #F0D000",
".U c #91FB0F",
".Y c #FABF00",
".T c #F1C401",
".R c #EEDC01",
".E c #EDD400",
".W c #F7C700",
".Q c #F7C300",
".! c #020004",
".~ c #F79F00",
".^ c #F4CB00",
"./ c #F1F900",
".( c #95E423",
".) c #D7FC04",
"._ c #FEB400",
".` c #F4B700",
".' c #FEAA00",
".] c #C0F10B",
".[ c #4E7F6F",
".{ c #38E148",
".} c #FE9A00",
".| c #4BCA51",
"X  c #A0F113",
"X. c #FE9000",
"XX c #494C5D",
"Xo c #63F526",
"XO c #DDEB03",
"X+ c #FE7600",
"X@ c #FBA200",
"X# c #B3E915",
"X$ c #FB9A00",
"X% c #F0CD02",
"X& c #FB9800",
"X* c #F0BF02",
"X= c #B1FC0C",
"X- c #030504",
"X; c #368971",
"X: c #141A25",
"X> c #FFAF00",
"X, c #5CC657",
"X< c #FFA100",
"X1 c #FF9F00",
"X2 c #FF9D00",
"X3 c #000304",
"X4 c #3AF235",
"X5 c #FF9900",
"X6 c #FF9500",
"X7 c #FF9300",
"X8 c #FF9100",
"X9 c #88FB18",
"X0 c #FF8B00",
"Xq c #FF8900",
"Xw c #FF8700",
"Xe c #FF8500",
"Xr c #FF8300",
"Xt c #FF8100",
"Xy c #FF7F00",
"Xu c #FF7D00",
"Xi c #FCAD00",
"Xp c #FF7B00",
"Xa c #FF7900",
"Xs c #FF7700",
"Xd c #FF7500",
"Xf c #FF7300",
"Xg c #FCA300",
"Xh c #FF7100",
"Xj c #FF6F00",
"Xk c #FF6D00",
"Xl c #FF6B00",
"Xz c #FF6900",
"Xx c #FF6700",
"Xc c #FF6500",
"Xv c #FF6300",
"Xb c #FF6100",
"Xn c #FF5F00",
"Xm c #FF5D00",
"XM c #FF5B00",
"XN c #FC8B00",
"XB c #FF5900",
"XV c #FF5700",
"XC c #FF5500",
"XZ c #EEEA02",
"XA c #FF5300",
"XS c #FF5100",
"XD c #FF4F00",
"XF c #FF4D00",
"XG c #0B020B",
"XH c #FF4B00",
"XJ c #FF4700",
"XK c #FF4500",
"XL c #FF4300",
"XP c #FF3D00",
"XI c None",
/* pixels */
".h.h.h.h.h.h.h.g.dXD.r.gXJXJXK.j.jXLXLXL.j.jXKXJXJ.h.hXHXD.8 | d P ^. Xy.9.iXHXJ.k.k.k.k.k.k.z.v.v.v.v.v.v.v.v.v.v.v.v.v.v.v.v.v",
".h.h.h.h.h.g.i.i.uXb.-XD.d.h.h.h.h.h.h.h.h.h.h.h.h.h.g.iXDXV.<Xu.'XpXv.6XS.i.d.hXJ.k.k.k.k.k.k.z.v.v.v.v.v.v.v.v.v.v.v.v.v.v.v.v",
".h.h.hXHXF.i.i.u.5.O `XC.iXF.h.h.h.h.h.h.h.h.h.h.h.h.i.iXDXMXd 4 _. .6.9XS.iXF.h.hXJXL.k.k.k.k.k.z.v.v.v.v.v.v.v.v.v.v.v.v.v.v.v",
"XFXF.iXD.uXSXAXBXu WXkXVXD.i.d.h.h.h.h.h.h.h.h.h.hXF.i.i.rXdX7Xi. .,XM.9XA.i.i.h.h.hXJXL.k.k.k.k.k.kXP.v.v.v.v.v.v.v.v.v.v.v.v.v",
"Xv.q.e.e.e.e.q.6X0 }Xb.9.eXD.i.d.h.h.h.h.h.h.h.h.d.i.i.u.q.5Xa P.#XcXm.9.e.u.i.g.h.h.h.hXK.k.k.k.k.k.kXP.v.v.v.v.v.v.v.v.v.v.v.v",
"Xp.6XV.e.eXC.8.4.  !Xl.6.e.eXS.i.d.h.h.h.h.h.hXF.i.i.u.eXVXM.f ; _.O.<XM.e.eXD.d.h.h.h.h.hXJXL.k.k.k.k.k.zXP.v.v.v.v.v.v.v.v.v.v",
"Xw.>Xn.6.8Xm.4.<.& mXyXfXV.e.eXAXD.i.d.gXH.d.i.iXD.r.e.e.9XM., }X0.tXfXhXV.e.r.i.h.h.h.h.h.h.hXK.k.k.k.k.k.k.zXP.v.v.v.v.v.v.v.v",
" ;.O.*XtXh.,Xv.#Xs IXg.$.5.9.q.q.qXA.uXD.iXD.u.r.e.e.e.eXBXmXbXz.X t.a |.5.9XCXS.d.h.h.h.h.h.h.hXJ.j.k.k.k.k.k.k.k.zXPXPXPXPXPXP",
".' ] ] dXd.&XkXq ;.QX5Xh.4.5XM.8.6.#Xm.q.e.e.e.e.e.e.eXC.8Xn.4.-.OXw.AXeXv.4.5.8XD.g.h.h.h.h.h.h.h.hXJ.j.k.k.k.k.k.k.k.k.k.k.k.k",
".7X1X7 ; _XwXpXt s.FXyXh.,.<.<Xk.  2.$.8.9XC.e.e.e.e.e.9Xm.4Xb.#XuX$X*XpXkXpX6 c.e.iXH.h.h.h.h.h.h.h.h.hXJ.j.k.k.k.k.k.k.k.k.k.k",
" k L h . J.Y.FX2 , I }XjXl.-.&XN =.}.&.6.8.8.9.qXC.qXB.6.4Xb.>.XX@ =.Q.}X7X2XjXnXV.r.iXFXH.g.h.h.h.h.h.h.h.h.hXJ.j.k.k.k.k.k.k.k",
"XdXu.}.YX6.}.Y.C.^ ~ / |.$XjXp.FXqXh.>Xb.5.6.8.8.8.6.<XcXcXxXl.#Xu ~ , 7.YX@XlXmXV.e.r.i.i.i.i.i.i.i.i.iXFXF.d.g.h.hXJXJXK.j.j.j",
"Xl.XXr t _ ' kX7.x.A ;XrXsXsXr 4 }Xj.-Xv.4.4.4.4.4.,XtXq.&.&XkXdXyX6X%.A l.O.,.5.q.e.e.rXD.i.i.i.i.i.i.iXDXAXB.-.u.d.h.h.h.h.h.h",
"Xx `Xi T |Xs }Xe._XO i )Xt 'Xq.0Xq.O.&XxXb.4.4XbXc.-X& Y. .XXyX0 ( C nX$XyXf.-XnXV.e.e.e.eXSXD.i.i.i.iXSXCXB ~Xd.e.i.iXH.h.h.h.h",
"Xc (Xr.XXj.$.O j t -.x W u TX5 , =Xt.#.$.&Xc.,.>.-.$ ^Xi )Xq (.0.^.YXZ.TX@ vX8.#XB.e.e.e.e.e.eXAXAXA.9XB.8XbXqX+.9.u.i.iXF.h.h.h",
".6.>.>.>.-.&.&XsXe s qX>.F.Q.I.lX1Xq }X0X7XjXl.&.&XhXpXg.0.IXg.Q.(X#.x.0X@ ] k.-.6.9.e.e.e.e.e.qXBXmXr.*. Xj T.2XnXA.i.i.i.i.g.h",
"XVXM.4.<.,Xx.&XdX&.I.W.R 3 [.( ..WX6XwX@ /. XjXkXjXd }Xr g.l G ZX#.NX> ^Xp.OXlXc.4XM.8.9.9XB.8.8XMXv c L.7X@.7.MXr.9.i.i.i.i.iXH",
".eXB.6.4.4Xb.- _ PX7X6.B.1.JX3.P R v ; B ; ] ] {Xs |XpXe W.' 3 q._.T &.MXsXkXzXc.4.4.6.8.8.8.8XM.<.$Xq &.tX$.' ]Xb.9XS.i.i.i.i.i",
".e.q.8.5.4.4Xv.  {Xu g.Q 3 >.y.P.p D.I GX5 /.7 kXyXyX.X6 m._ Z.^X1X8Xe ]Xh.&.*.>.4.4.4XnXn.5XnXv ` 4.^.7.aXpXj.$XMXB.e.u.i.i.i.i",
".e.e.8XM.4.4.<.*XjXsXqX<.B *.( F h q n.R.FX< 9 ~XwXqXg 9.B.m.n.K.Y T ' |Xf.&.&.>Xb.4.4.4.4.4Xv.>Xf - # k |Xk.>Xn.8.8.e.e.u.i.i.i",
".e.eXB.8.5.4XvXz.&XpX<.^ D q.Q q u P =.m.R o.. -X<X8X5 t D @.].QX< ; ] |XdXhXkXzXcXb.4.4.4.,.>Xz /.IX7Xa.#Xx.,Xn.8.8XC.e.e.rXD.i",
".e.eXB.8.6.4Xc.-.&XdXq ,X> TX5 & iX6 4.A *X# 6.p.F C P.BXO.p.WXiX8Xq 'Xa |Xd.OXh.*.>.,.,.>.>Xz.$Xu.TXq |Xj.-Xv.4XM.8.q.e.e.e.eXS",
".e.eXB.8.6Xb.>XzXj.  /.^ ; (X0.t ~ / !.C q @ @.m.p.. J.H w 3._X5 ~Xw _ 'XuXy.2 g 'Xk.*Xz.*Xl.&.# | H._ 2X+.*Xv.4Xm.8.9.e.e.e.e.e",
".r.e.9.8.6XcXx.$.OXa ) -Xq `XyXy ` _ (Xg._.n p R.m.L.N a.p.A iX1X$ ^XeXeXw.a.I XXr.OXk.&.&.&.&.O | `.MX% ]XjXc.4.4XM.8.e.e.e.e.e",
"XD.e.9.8.> ] ) { lXeX1 9 `Xp | |Xp 'Xe ^.D.I & y.^ n xXO.N n._.Q BX5 / / W RX5XwXp.X.OXjXk.$XhXsXa 2 C GX7 T.$Xb.4Xn.8XV.e.e.e.e",
".iXSXVXmXj t.A.7.F 9.W m }XsXs | |Xu _X8 t.7 TX1.Q.7.F.KX9XZ q.. y T WX7 T.T g _ { |. .X.XXa {Xu ` M 9.m G k.$XxXv.4.5.8.q.e.e.e",
".iXDXC.* jXy ~XiXi MX&. .O.OXh.O.X }X. X.EX1 ! ! T P =.l a w [XO.Y IX1.0X> D =XqXtXa | |Xp / CXq ^X$Xi.. 9X$.#.&.-.>.,.5.8.q.e.e",
"XF.i.r.,.-XcXzX. }Xh. .$.$.&.&.&XjXfXNXq 2Xq / ~ WX2.C +.n f.U O.I t tX%.o a.t ! M _ {Xu 'X6 7 C B.B 8.] GXqXsXh.#.f }.X.5.8XBXV",
".d.i.u.qXM.6Xn.&XzXx.>.>Xz.&.&.&.&XjXd {XyXrXeX0X6X<.A.m.V U.VXZ o q.A.x.L.p.A tX* / _ _Xe / P.Y.o.].L GXgXqXu }.2 X 9.OXvXnXM.8",
"XH.iXD.eXB.8.8XM.4XvXc.>.>XxXl.&.&XkXf |Xp ' _Xw v.I.R.o $.VX4.) *XO o.H.L.N @ O.0 ~ ( ) ( ~ g v.W.U Z.F P CX&Xw.M / |.*Xc.4.4.5",
".g.i.i.eXC.8.8.8XM.4.4Xb.,.>Xx.&.&.&.OXs |Xu _ (X6 t._ , x.n 5.S.;.V $ [X=.L Z n tX5 I.~ !X7 v C.o.UXZ R 8...` C.K.2.OXl.>Xb.4.4",
".g.i.iXA.eXC.8.8.8Xm.4.4.4Xv.>.*.&.$.OXs | {Xq ~X5 P C.B F.n.+ <.=.U.; KX4 b p J y y.K.' T TXi.E 3.S.).;.U.;.].R F Y.X.&XxXv.4.4",
"XH.i.iXA.e.e.q.8.8.8.4.4.4.4.,Xx.&.#.O | |Xt C.`.E.^.BXZ.VXo <.% EX4 f.cXo.Z.m.@.F.F.K.t y P.'._.lX=.SX9 $.H + wX* _.X.&Xl.>Xb.4",
".d.i.iXA.e.e.e.9.8.8.5.4.4.4Xb.>Xk.OXdXa ]XeX7 t +.L.H.G./.V.=.3 A.J r.3.{.U S 3.B.@ V.R n._.C.A R x./Xo Z 7 = v.~Xu. XhXkXzXcXb",
".i.i.iXA.e.e.eXC.8.8Xm.4.4.4.4.>.# {XtXyXrXq g y R b.n.V.L 5X;.!       Q % eX= $ 3.G.S.1.N R D p p ZX= 5.: J tX5Xq ' }. XfXhXz.>",
".i.i.iXA.e.e.e.e.9.8.6.4.4.4XbXx ] Y.T / / P.^XO.:X9.UX4.{ e.J           A.|.U./.N./ b : [.G.].1 a.ZXo.= Z.].K.sXqXeXr k Y mXdXl",
".i.i.i.e.e.e.e.e.q.8.6.4.4.4.,XzXhXr 7 X i.KXO N [ $XO.n.+ zX-          XG.| NX= f.L : %.+.).)Xo.| S.+.c U V X TX8 ^ Y F.K XXs.#",
".i.i.i.e.e.e.e.eXC.8Xm.4.4Xv.>.&XhXpXN.s.7X1 t n h.x p [ K e.y          X:X4 5 1.[ < 1.3 f U.1 U.[ z 0 eX  D.F P 4X5X* s ^ `. .O",
".i.i.u.e.e.e.e.eXC.8.5.4.,.>.*.&Xh. XuXe / ! ; 9X>.A p V :.| r           EX;.3X: QX:X:XG E z f <XG  X:.cXo 6.Y._ G & +.M ) ] |Xf",
".i.iXS.e.e.e.e.e.q.8.4Xc.>.*.&XkXf | {XrXw ~X6X< u.^XZ O.Z : 1 r.y  .!.yXG                X3.% z.!  .y %.1 D R.@X .1.V.s )Xy | |",
".i.iXA.e.e.e.e.e.9Xm.>XzXlXk.$Xf | |Xy _Xw !X5X1X>.C o.G./ b KX4 %.%X-                          X- A E U O.m x O :.).lX1 ~XrXa |",
".iXD.e.e.e.e.e.q.8XvXq 4 |. XuX$XtXq )Xw ~ L I.' G.] x.m.b V.| 0.y                                .y E.| f O./X=.{Xo.(.Y BX$ ]Xa",
".i.r.e.e.e.e.q.8Xm.,.# 9 M M.M 7X6.`X7 ~ g.E.Q 8 D K.Z.) U.w r                                      X3.3.[ V.:.n K.SX  6 mX0XrXy",
".u.e.e.e.eXV.8XM.4.,Xl {.MX1.I.p 9.KX*X2X1 t , O V.S S S.{.3XG                                           0 f.= 5 < O.I LX6 / _ _",
"XA.e.e.qXB.8.8Xn.4.,Xz.# | `X@.o wX=.l.7 i t.F p.G N % zX;XG                                            .y z.3X; %.1X* iX1X7Xw _",
".e.qXB.8.8.8.5.4.4.,.*Xk. Xt L.0 F N @.K._.^ J o $.1 1.3XG                                                X-.!.[ U 3X%X% ..s ~X0",
".8.8.8.8.8.5.4.4.4Xx.&Xj }XrX8 P.BXZ.SXZ h x..X#.Z O 5X;                                                  X- E.+.n.(.bX  y T W ~",
".8.8.8XM.5.4.4.4XcXkXh }.M M C.R +.LX9 $ 3.G V : b N 1 Q                                                     A e.L.= : 8 t TX5X7",
"XvXn.5.4.4XbXv.>XfX$ ` ` m.l.o.; N.ZX9 [ O.).1.c.+.+.wX-                                                    X- %.|.|.bX#X*X1X2 T",
" ( {Xx.>.>.>Xx.&Xf.2 B L.M , N.o.p x.U 5 f.VXo % r r E                                                         QXX %.p.BX> i P -",
"Xg |Xk.-XxXz.&XjXp.~ G F hX  @ o.B h.].1 f.= %.J     Q                                                        .3.| VX# F.7 t t X",
".I jXu lXh.#.O {.`.^.@.o.N a...lX>.F.x * S.= zX:    .!                                                        .J f < V o.A._._ J",
".R 4 T m {XaXp m q.@.' C.o q t.Q I P.E V :.1 5 z A.3.%                                                         Q.[ 1.(X% J J.C.B",
".WX%.^ 7X<X@X& LX8X8 H ~.t.E T WX6 T = w x O U.|.c.=X:                                                        X: 1.b.m o RX# o o",
" lX< L D B.@.E mXu } {Xt ~ # W ^ ~ m 8 X.C.@.].).L 1.%                                                         A %X, $.H p..X# .",
"XlXfX@X$X7 vXrXp.XXdXsXp ;.aXq ) ) j 4 i._ n.H Z.{ 1 A                                                        .3 1 O.GXZ.GXZ 1.[",
"Xv.-.2 |.#XuXh.#Xj.$Xj.OXy ]XyXt _XqX7X<.7 R x.m NX, 0                                                         rX, *./ Z.(X# > E",
".6.5Xz.-Xx.>Xx.*.&.&.&.&XhXsXaXpXtXqX6 X 6.:.m./.: 5.w.y                                                    X-.[.(.Z.] [ 1.[ f r",
".8.8.6Xb.,.>.>.>.-.&.&.&XkXf | |Xu m.T 6.LX  5.)X9 % 0 Q                                                    .JX, b O >.[ 1 QX:.!",
".8.8.8Xm.4XbXv.>.>.-.&.&.&.O.  |XpXqX5 v.K S : SX4 z   QX3                                                X3.[X9.1X,.[.3X:      ",
"XB.8.8.8Xn.4.4Xb.,.>.-.&.&.O.X | { _ ^.s V a.L f e % 0.w.%                                                .% U 5.[.J.y          ",
".q.8.8.8Xm.4.4.4.4.,.>.*.&.O.X }Xy _.~ 8 6 N.H +.b.b.b.+ z.y                                             Q <.| r.y              ",
".e.9.8.8XM.4.4.4.4.4Xc.-Xk.O | ]Xr ( d.]X  @ h.W G $.).;.| 0                                          X-.w 0 Q                  ",
".eXC.8.8.8Xn.4.4.4.4.<.>Xk. .~ v.}X6.s 8 = GX>X> J.:.{ K.|.%.%X-                                    XG r Q                      "
};
